<?xml version="1.0" encoding="UTF-8"?>
<!DOCTYPE svg PUBLIC "-//W3C//DTD SVG 1.1//EN" "http://www.w3.org/Graphics/SVG/1.1/DTD/svg11.dtd">
<!-- Creator: CorelDRAW (Evaluation Version) -->
<svg xmlns="http://www.w3.org/2000/svg" xml:space="preserve" width="297mm" height="100mm" version="1.1" style="shape-rendering:geometricPrecision; text-rendering:geometricPrecision; image-rendering:optimizeQuality; fill-rule:evenodd; clip-rule:evenodd"
viewBox="0 0 29700 10000"
 xmlns:xlink="http://www.w3.org/1999/xlink"
 xmlns:xodm="http://www.corel.com/coreldraw/odm/2003">
 <defs>
  <style type="text/css">
   <![CDATA[
    .fil1 {fill:#FFF}
    .fil0 {fill:#EE364F}
    .fil2 {fill:#FFF;fill-rule:nonzero}
    .fil3 {fill:#EE364F;fill-rule:nonzero}
   ]]>
  </style>
 </defs>
 <g id="Layer_x0020_1">
  <metadata id="CorelCorpID_0Corel-Layer"/>
  <path class="fil0" d="M7182.12 2087.25c673.85,-85.5 961.73,428.11 794.34,1059.04 -178.83,674.14 -719.75,1356.52 -1148.03,1855.52 -289.48,337.19 -1190.84,1205.42 -1573.33,1426.81 155.76,-180.75 349.85,-331.82 512.72,-506.78 306.66,-329.48 302.96,-194.05 296.52,-747.98 101.94,-89.53 263.1,-140.12 390.53,-214.93 994.12,-583.61 727.53,-1315.56 1045.78,-2092.2 121.59,-296.73 -1.28,-274.19 -318.53,-779.48zm-3467.67 4144.01c-0.68,136.56 77.4,348.36 89.52,526.02 12.98,190.07 10.49,389.85 -18.48,573.84 -47.72,302.92 -135.39,691.52 -269.86,908.86 288.34,217.59 303.42,374.49 878.86,-27.52 369.83,-258.37 626.31,-41.56 842.34,-511.58 339.54,-738.84 555.74,-1021.6 1197.2,-1509.12l913.95 -901.14c448.4,-419.29 1222.3,-1563.55 1417.17,-2181.69 187.41,-594.39 141.93,-1055.31 -284.75,-1328.86 -438.38,-281.02 -1074.4,-66.45 -1552.85,-4.06l-856.84 -954.47c-157.9,-150.11 -304.17,-259.01 -571.35,-352.95 -187.9,-66.09 -539.78,-162.01 -743.75,-190.88 -127.36,119.39 -477.74,512.57 -426.15,802.55 142.04,123.55 410.08,225.45 623.93,243.44 292.08,24.53 411.25,-150.04 625.32,-246.57 72.18,900.01 -117.04,1606.68 637.09,1914.61l-226.69 81.63c-722.77,186.06 -774.18,575.33 -919.99,1192.55 -2101.8,79.28 -1300.13,1617.8 -1354.67,1965.34z"/>
  <path class="fil1" d="M1750.46 5862.85c134.46,13.44 268.96,26.92 403.46,40.36 86.26,337.55 265.87,663.04 456.94,886.92 289.76,339.54 345.16,367.56 424.05,963.8 -403.29,129.16 -857.45,318.91 -1351.12,271.73 -420.35,-40.17 -657.88,-250.65 -687.79,-625.1 -1.81,-372.22 145.56,-821.4 475.18,-1350.8 218.09,-329.58 472.94,-636.56 678.97,-904.67 88.21,-114.73 21.98,-63.1 144.35,-118.53 -86.89,188.75 -448.15,599.47 -544.04,836.29zm7112.82 1356.13c-2465.16,1307.28 -5142.43,1823.91 -6651.76,1438.97 491.21,-127.85 975.52,-324.18 1304.11,-417.97 134.47,-217.34 222.14,-605.94 269.86,-908.86 28.97,-183.99 31.46,-383.77 18.48,-573.84 -12.12,-177.66 -90.2,-389.46 -89.52,-526.02 -95.21,-544.18 -352.66,-1124.39 39.07,-1564.65 168.92,-189.86 300.08,-296.8 568.26,-421.99 260.61,-121.66 120.1,-127.85 231.17,-263.91 47,-57.6 253.78,-122.95 336.23,-160.56 -9.67,-308.22 -158.64,-530.47 -194.48,-792.11 240.24,-180.5 758.12,-384.51 922.27,-530.28 -15.57,-50.81 -31.11,-101.62 -46.68,-152.39 -331.58,139.2 -650.32,406.6 -953.16,526.06 -60.7,-315.05 -162.31,-511.44 -498.4,-554.43 -292.85,-37.47 -643.24,48.03 -862.04,169.24 -741.33,410.64 -108.33,1105.58 -9.42,1400.11 -32.74,38.43 -247.49,239.81 -299.18,275.22 -145.13,99.51 -182.5,7.18 -369.76,-46.01 -385.05,-109.43 -623.01,-11.55 -973.93,35.88 800.82,-1104.09 -106.59,-1139.11 -47.57,-2121.54 664.75,-8 609.39,428.78 1144.58,-331.25 164.05,-232.95 -46.22,-401.76 -269.6,-572.95 -188.04,-144.14 -269.11,-144.24 -500.56,-30.11 -697.21,343.73 -667.6,402.29 -1018.48,994.83 -388.85,656.68 -630.01,1188.13 -603.66,2094.76 8.28,284.57 110.11,261 275.64,405.35 132.3,115.37 156.09,248.94 242.37,417.65 290.09,567.01 458.76,579.59 579.82,759.89 -79.25,134.68 -158.72,246.49 -240.03,360.09l-0.03 0 -0.25 0.35c-151.75,211.87 -309.85,429.99 -485.24,814.26 -145.17,318.02 -304.02,791.03 -230.57,1174.87 207.74,2104.93 4642.41,2053.7 7907.49,685.34 56.07,-114.77 448.9,-1469.23 504.97,-1584z"/>
  <path class="fil2" d="M12393.54 3740.6l-298.4 841.63 -1807.6 0 -48.8 147.75c-13.37,36.38 -20.09,67.44 -20.09,92.31 0,59.79 38.27,89.92 114.78,89.92l1646.97 0 -189.4 539.43 -1776.05 0c-336.66,0 -505,-105.23 -505,-315.65 0,-59.29 21.06,-150.14 63.15,-272.55l525.05 -1520.71c42.08,-118.59 144.43,-177.89 307.02,-177.89l1684.22 0c241.04,0 361.54,99.47 361.54,297.9 0,74.12 -19.12,166.92 -57.39,277.86zm-668.52 111.42c3.81,-11.01 5.71,-23.45 5.71,-36.81 0,-74.13 -46.82,-110.94 -140.59,-110.94l-803.39 0c-68.85,0 -117.62,4.78 -146.3,14.34 -40.18,14.82 -66.95,43.5 -80.36,85.09l-77.44 239.14 1179.23 0 63.14 -190.82zm2915.14 1060.19l-189.36 539.43 -2149.05 0 780.43 -2286.8 619.75 0 -599.66 1747.37 1537.89 0zm2398.71 0l-189.39 539.43 -2149.05 0 780.42 -2286.8 619.75 0 -599.66 1747.37 1537.93 0zm2800.39 -1291.18l-645.59 1830.61 -1925.26 0c-105.23,0 -183.65,-34.47 -235.29,-103.29 -42.08,-59.82 -63.1,-134.39 -63.1,-224.3 0,-61.69 9.55,-118.11 28.67,-169.76l246.75 -710.15c59.3,-172.63 180.77,-258.7 364.41,-258.7l1474.79 0 43.01 -133.42c5.75,-17.21 8.63,-33.01 8.63,-48.32 0,-66.46 -43.06,-99.43 -129.13,-99.43l-1575.23 0 189.4 -539.43 1939.6 0c202.76,0 304.14,101.38 304.14,304.14 0,53.55 -8.62,104.26 -25.8,152.05zm-944.02 903.84l-987 0c-89.91,0 -149.21,40.63 -177.89,122.41l-37.3 98.99c-7.66,25.35 -11.5,48.28 -11.5,69.82 0,64.08 32.52,96.12 97.57,96.12l981.28 0 134.84 -387.34zm3664.05 -869.41l-542.3 1540.8c-59.3,170.24 -167.36,255.38 -324.2,255.38l-2111.78 0 809.14 -2286.8 1804.73 0c116.69,0 211.87,27.26 285.51,81.77 73.64,54.52 110.45,132.45 110.45,233.83 0,53.55 -10.53,111.91 -31.55,175.02zm-682.89 163.55c1.94,-7.65 2.87,-15.31 2.87,-22.96 0,-61.2 -48.76,-91.78 -146.34,-91.78l-906.67 0 -427.52 1207.94 900.97 0c126.21,0 204.66,-42.08 235.24,-126.25l17.22 -48.77c9.55,-24.87 117.66,-330.91 324.23,-918.18zm3359.91 -197.98l-645.59 1830.61 -1925.27 0c-105.19,0 -183.64,-34.47 -235.28,-103.29 -42.09,-59.82 -63.11,-134.39 -63.11,-224.3 0,-61.69 9.56,-118.11 28.68,-169.76l246.75 -710.15c59.29,-172.63 180.76,-258.7 364.41,-258.7l1474.78 0 43.06 -133.42c5.71,-17.21 8.58,-33.01 8.58,-48.32 0,-66.46 -43.01,-99.43 -129.12,-99.43l-1575.19 0 189.35 -539.43 1939.6 0c202.77,0 304.15,101.38 304.15,304.14 0,53.55 -8.59,104.26 -25.8,152.05zm-943.98 903.84l-987.04 0c-89.92,0 -149.22,40.63 -177.89,122.41l-37.31 98.99c-7.65,25.35 -11.46,48.28 -11.46,69.82 0,64.08 32.53,96.12 97.53,96.12l981.29 0 134.88 -387.34z"/>
  <path class="fil3" d="M20913.5 7264.75c0,189.8 -103,335.21 -308.92,436.18 -157.48,76.68 -343.23,115.08 -557.29,115.08 -250.4,0 -421.97,-36.38 -514.93,-109.08 -72.62,-56.5 -108.99,-143.34 -108.99,-260.48 0,-84.77 17.13,-146.38 51.48,-184.74 34.31,-38.31 77.77,-57.51 130.22,-57.51 32.32,-4.05 74.73,10.08 127.22,42.4 141.36,88.83 234.23,136.26 278.63,142.33 44.43,6.04 84.85,9.08 121.18,9.08 44.4,0 80.77,-10.09 109.04,-30.26 28.23,-20.25 42.41,-54.52 42.41,-103 0,-24.22 -113.05,-105.03 -339.22,-242.29 -226.13,-137.31 -339.26,-288.75 -339.26,-454.33 0,-209.98 113.13,-373.53 339.26,-490.63 193.81,-100.97 417.92,-151.4 672.36,-151.4 177.69,0 308.96,42.37 393.74,127.14 72.7,72.71 108.99,171.66 108.99,296.85 0,80.73 -24.22,165.58 -72.66,254.41 -60.55,108.99 -139.33,163.55 -236.26,163.55 -96.88,0 -159.5,-24.22 -187.77,-72.7 -20.18,-32.32 -16.12,-69.67 12.15,-112.04 28.27,-42.4 60.55,-87.89 96.92,-136.29 0,-36.37 -13.16,-63.63 -39.41,-81.78 -26.2,-18.18 -61.56,-27.3 -106,-27.3 -125.19,0 -217.06,13.17 -275.58,39.37 -58.57,26.25 -93.89,89.88 -106.04,190.82 0,36.37 118.15,132.28 354.36,287.73 236.26,155.5 354.37,291.79 354.37,408.89zm2283.69 357.41c-105.03,0 -218.08,-10.13 -339.26,-30.3 -121.15,-20.21 -216.05,-40.38 -284.71,-60.55 -72.66,56.5 -129.16,96.92 -169.58,121.14 -100.94,56.5 -248.33,84.78 -442.18,84.78 -72.71,0 -145.41,-13.09 -218.08,-39.33 -72.7,-26.29 -147.35,-63.67 -224.1,-112.12 -92.88,278.67 -157.52,563.37 -193.85,854.11 -48.45,355.38 -84.78,587.54 -109,696.62 -24.26,109 -84.86,199.85 -181.78,272.55 -96.93,72.7 -173.6,109.08 -230.18,109.08 -60.52,0 -104.99,-35.36 -133.22,-106.04 -28.27,-70.68 -42.45,-136.26 -42.45,-196.81 0,-169.63 56.54,-426.06 169.63,-769.33 12.11,-32.32 121.15,-333.18 327.07,-902.58 125.2,-339.18 191.82,-563.33 199.93,-672.33 -72.71,-16.2 -129.25,-34.34 -169.63,-54.56 -60.56,-32.32 -90.85,-66.58 -90.85,-103 0,-12.07 10.12,-32.24 30.29,-60.51 145.41,-165.58 264.53,-296.85 357.41,-393.78 173.6,-185.75 280.65,-278.62 321.03,-278.62 36.37,0 62.58,16.16 78.74,48.44 12.11,48.48 22.24,86.88 30.26,115.07 76.75,-100.89 155.53,-201.87 236.25,-302.84 121.15,-125.2 246.35,-187.78 375.6,-187.78 141.35,0 258.45,66.63 351.33,199.93 80.72,117.09 121.14,256.43 121.14,417.95 0,197.87 -12.15,350.28 -36.37,457.33 -24.22,107.01 -70.68,243.27 -139.29,408.85 68.61,16.2 123.17,26.24 163.51,30.29 145.41,24.23 260.48,36.38 345.34,36.38 80.72,0 121.1,52.45 121.1,157.48 0,60.55 -22.23,119.12 -66.63,175.62 -44.43,56.58 -96.92,84.86 -157.47,84.86zm-751.11 -1247.84c0,-40.43 -15.19,-75.71 -45.44,-106 -30.3,-30.34 -65.66,-45.45 -106.04,-45.45 -64.56,0 -113.05,46.46 -145.37,139.33 -28.27,113.05 -48.48,189.81 -60.55,230.15 68.65,16.2 117.09,32.32 145.37,48.48 72.7,40.42 121.1,105.03 145.36,193.85 12.12,-60.55 26.25,-138.32 42.41,-233.22 16.16,-94.9 24.26,-170.64 24.26,-227.14zm-278.7 817.73c-24.22,-36.3 -48.45,-72.67 -72.67,-109 -48.44,-64.64 -84.81,-96.93 -109.03,-96.93 -92.88,0 -139.3,38.36 -139.3,115.08 0,32.32 17.14,61.56 51.49,87.81 34.3,26.28 75.74,39.41 124.18,39.41 44.43,4.01 92.87,-8.06 145.33,-36.37zm3452.78 -417.92c0,80.72 -44.39,142.33 -133.3,184.74 -88.82,42.36 -191.74,63.59 -308.84,63.59 -72.7,0 -143.38,-11.1 -212.08,-33.3 -68.65,-22.19 -133.25,-57.55 -193.81,-106.04 -169.59,226.18 -337.19,450.28 -502.77,672.41 -205.92,197.86 -405.85,296.81 -599.7,296.81 -113.04,0 -222.08,-42.41 -327.11,-127.18 -121.14,-100.98 -181.7,-224.15 -181.7,-369.56 0,-294.75 169.63,-591.6 508.81,-890.39 290.78,-254.41 514.93,-381.63 672.4,-381.63 238.25,0 401.8,48.44 490.63,145.37 64.6,68.65 96.92,173.6 96.92,314.95 40.38,32.33 91.86,58.57 154.44,78.74 62.62,20.22 116.17,30.34 160.56,30.34 36.33,0 90.85,-6.07 163.55,-18.19 72.71,-12.15 119.13,-18.22 139.34,-18.22 48.44,0 72.66,52.53 72.66,157.56zm-1266.03 121.14c0,-105.02 -20.17,-163.59 -60.55,-175.7 -80.76,-20.17 -194.86,45.44 -342.26,196.89 -147.35,151.4 -221.06,259.47 -221.06,324.07 0,32.32 9.07,65.61 27.25,99.96 18.19,34.31 43.42,51.48 75.71,51.48 109.07,0 223.13,-61.6 342.25,-184.78 119.12,-123.13 178.66,-227.14 178.66,-311.92zm2968.2 -739.03c0,129.21 -31.35,222.09 -93.89,278.63 -62.66,56.58 -154.52,84.81 -275.66,84.81 -64.61,0 -119.13,-22.23 -163.56,-66.63 -44.39,-44.43 -106.97,-66.62 -187.77,-66.62 -100.98,0 -199.85,44.39 -296.78,133.25 -68.65,60.6 -137.34,145.37 -206,254.45 -36.33,60.55 -65.61,129.16 -87.81,205.92 -22.2,76.75 -33.29,177.65 -33.29,302.85l0 157.56c0,92.87 -37.39,169.54 -112.12,230.14 -74.69,60.55 -164.52,90.85 -269.51,90.85 -109.08,0 -174.65,-19.16 -196.89,-57.56 -22.2,-38.36 -33.33,-97.86 -33.33,-178.66 0,-40.38 25.23,-143.38 75.74,-308.92 50.47,-165.58 75.74,-270.61 75.74,-315 0,-129.21 -8.1,-236.26 -24.26,-321.03 -36.29,-189.8 -54.52,-308.93 -54.52,-357.41 0,-56.54 37.39,-108.99 112.11,-157.48 74.65,-48.44 140.31,-72.7 196.81,-72.7 68.66,0 136.3,31.27 202.97,93.89 66.63,62.57 99.92,134.27 99.92,215.07 52.49,-113.13 154.48,-208.03 305.92,-284.7 151.41,-76.75 293.78,-115.11 427,-115.11 137.34,0 261.49,21.22 372.59,63.59 111.02,42.41 166.59,106 166.59,190.81zm1653.65 -36.37c-286.73,52.53 -664.3,109.08 -1132.73,169.63 -105.03,222.12 -177.65,399.77 -218.07,533.07 -80.73,258.45 -121.15,520.96 -121.15,787.43 0,96.93 -17.17,157.52 -51.44,181.78 -34.35,24.23 -110.09,36.3 -227.18,36.3 -145.41,0 -218.12,-94.9 -218.12,-284.7 0,-109 -2.02,-315.97 -5.99,-620.89 -4.05,-304.91 -6.08,-532.01 -6.08,-681.47 0,-56.51 10.05,-105.96 30.3,-148.37 20.17,-42.45 48.48,-69.7 84.77,-81.78 64.61,-24.22 146.43,-46.45 245.38,-66.62 98.87,-20.17 172.58,-34.35 221.03,-42.41 193.85,-500.75 367.53,-900.52 520.95,-1199.4 274.66,-528.98 510.88,-805.62 708.74,-829.88 129.25,-20.17 193.85,26.25 193.85,139.33 0,149.42 -191.83,541.17 -575.48,1175.18 -133.25,218.07 -266.51,436.1 -399.81,654.18 145.41,0 321.07,-2.03 527.04,-6.08 205.92,-3.97 419.94,-10.05 642.06,-18.15 92.88,0 139.33,38.4 139.33,115.08 0,40.42 -25.23,76.75 -75.74,109.07 -50.47,32.28 -144.35,58.53 -281.66,78.7z"/>
  <path class="fil2" d="M9863.27 6076.53l0 55.9 -98.06 0c-103.94,0 -165.7,12.71 -208.8,74.44 -40.22,57.84 -46.09,131.44 -46.09,203.98 0,70.56 4.86,147.03 39.24,203.9 41.16,66.62 107.83,81.41 192.11,81.41l121.6 0 0 66.63 129.36 0 0 -66.63 121.64 0c84.29,0 150.96,-14.79 192.15,-81.41 34.26,-56.87 39.21,-133.34 39.21,-203.9 0,-72.54 -5.88,-146.14 -46.14,-203.98 -43.05,-61.73 -104.86,-74.44 -209.77,-74.44l-97.09 0 0 -55.9 -129.36 0zm0 516.67l-57.88 0c-50.96,0 -119.57,-1.99 -147.03,-63.76 -5.88,-13.73 -14.71,-42.16 -14.71,-118.59 0,-76.47 10.78,-104.95 17.62,-118.64 25.52,-50.02 79.47,-56.86 125.52,-56.86l76.48 0 0 357.85zm129.36 0l0 -357.85 76.48 0c49.05,0 99.07,6.84 124.55,56.86 12.75,24.51 18.63,57.84 18.63,118.64 0,68.61 -5.88,98.99 -14.75,118.59 -27.42,61.77 -96.03,63.76 -147.07,63.76l-57.84 0zm763.14 169.59l0 -686.26 -129.37 0 0 686.26 129.37 0zm628.9 0l0 -583.38 268.54 0 0 -102.88 -665.64 0 0 102.88 267.65 0 0 583.38 129.45 0zm1115.96 -686.26l-129.33 0 0 281.38 -356.92 0 0 -281.38 -129.37 0 0 686.26 129.37 0 0 -301.92 356.92 0 0 301.92 129.33 0 0 -686.26zm850.41 686.26l0 -102.92 -366.64 0c-20.57,0 -36.29,-1.02 -44.14,-8.83 -5.8,-4.9 -9.77,-15.68 -9.77,-26.49l0 -160.8 406.86 0 0 -102.92 -406.86 0 0 -138.2c0,-9.84 0,-23.57 10.78,-33.38 9.84,-8.79 23.49,-9.84 35.28,-9.84l370.61 0 0 -102.88 -440.24 0c-26.41,0 -59.78,1.95 -82.3,26.45 -14.79,16.69 -23.54,44.11 -23.54,71.57l0 486.29c0,26.41 1.99,57.84 25.48,80.36 22.56,21.59 49.01,21.59 78.46,21.59l446.02 0zm828.83 0l0 -102.92 -232.33 0c-81.37,0 -144.15,-11.75 -179.43,-65.7 -13.73,-21.59 -32.32,-63.75 -32.32,-166.67 0,-101.95 17.62,-153.92 38.2,-184.34 39.2,-58.81 103.89,-63.75 180.4,-63.75l214.71 0 0 -102.88 -275.51 0c-49.05,0 -155.82,5.87 -224.51,86.23 -57.8,67.69 -66.67,168.66 -66.67,266.68 0,75.5 4.94,180.4 69.63,252.95 63.75,71.61 152.98,80.4 218.6,80.4l289.23 0zm297.06 -213.74l349.99 0 0 -100.98 -349.99 0 0 100.98zm1381.38 213.74l0 -102.92 -94.13 0 0 -583.34 -129.41 0 0 583.34 -307.83 0c-9.8,0 -29.37,0 -38.24,-10.86 -8.83,-9.8 -5.91,-30.34 -5.91,-43.09l0 -529.39 -129.41 0 0 586.25c0,25.52 2.96,57.84 29.41,80.36 23.53,19.65 51.96,19.65 80.36,19.65l595.16 0zm781.68 0l0 -102.92 -366.56 0c-20.66,0 -36.33,-1.02 -44.15,-8.83 -5.83,-4.9 -9.8,-15.68 -9.8,-26.49l0 -160.8 406.86 0 0 -102.92 -406.86 0 0 -138.2c0,-9.84 0,-23.57 10.77,-33.38 9.81,-8.79 23.5,-9.84 35.32,-9.84l370.57 0 0 -102.88 -440.19 0c-26.49,0 -59.79,1.95 -82.35,26.45 -14.7,16.69 -23.53,44.11 -23.53,71.57l0 486.29c0,26.41 1.95,57.84 25.52,80.36 22.52,21.59 48.97,21.59 78.41,21.59l445.99 0zm886.71 -686.26l-129.45 0 0 281.38 -356.8 0 0 -281.38 -129.45 0 0 686.26 129.45 0 0 -301.92 356.8 0 0 301.92 129.45 0 0 -686.26zm628.82 686.26l0 -583.38 268.62 0 0 -102.88 -665.68 0 0 102.88 267.69 0 0 583.38 129.37 0zm629.83 0l0 -243.15 321.56 0c40.22,0 79.39,-12.72 104.91,-33.33 53.91,-44.11 59.78,-132.33 59.78,-188.22 0,-57.84 -4.9,-135.33 -51.97,-180.37 -42.16,-41.19 -100,-41.19 -136.29,-41.19l-326.42 0c-23.53,0 -54.92,3.93 -77.44,26.45 -23.58,23.53 -23.58,51.04 -23.58,76.43l0 583.38 129.45 0zm0 -346.07l0 -196.08c0,-11.78 0,-23.57 8.79,-32.36 9.8,-9.8 21.55,-8.87 30.42,-8.87l208.8 0c21.59,0 57.84,1.05 80.4,23.57 21.55,22.56 24.5,63.76 24.5,94.09 0,26.45 -1.94,70.64 -22.56,94.14 -22.56,25.51 -55.85,25.51 -84.29,25.51l-246.06 0z"/>
 </g>
</svg>
