<?xml version="1.0" encoding="UTF-8"?>
<!DOCTYPE svg PUBLIC "-//W3C//DTD SVG 1.1//EN" "http://www.w3.org/Graphics/SVG/1.1/DTD/svg11.dtd">
<!-- Creator: CorelDRAW (Evaluation Version) -->
<svg xmlns="http://www.w3.org/2000/svg" xml:space="preserve" width="185mm" height="210mm" version="1.1" style="shape-rendering:geometricPrecision; text-rendering:geometricPrecision; image-rendering:optimizeQuality; fill-rule:evenodd; clip-rule:evenodd"
viewBox="0 0 18500 21000"
 xmlns:xlink="http://www.w3.org/1999/xlink"
 xmlns:xodm="http://www.corel.com/coreldraw/odm/2003">
 <defs>
  <style type="text/css">
   <![CDATA[
    .fil3 {fill:#FFF}
    .fil2 {fill:#EE364F}
    .fil0 {fill:#FFF;fill-rule:nonzero}
    .fil1 {fill:#EE364F;fill-rule:nonzero}
   ]]>
  </style>
 </defs>
 <g id="Layer_x0020_1">
  <metadata id="CorelCorpID_0Corel-Layer"/>
  <g id="_2257153166448">
   <path class="fil0" d="M2928.44 15742.35l-265.09 747.7 -1605.87 0 -43.36 131.27c-11.87,32.32 -17.85,59.92 -17.85,82.01 0,53.11 34.01,79.88 101.98,79.88l1463.16 0 -168.26 479.23 -1577.84 0c-299.09,0 -448.64,-93.48 -448.64,-280.42 0,-52.68 18.71,-133.39 56.1,-242.13l466.45 -1351c37.39,-105.36 128.32,-158.04 272.76,-158.04l1496.26 0c214.14,0 321.19,88.37 321.19,264.66 0,65.85 -16.98,148.28 -50.99,246.84zm-593.9 98.99c3.38,-9.78 5.07,-20.83 5.07,-32.71 0,-65.84 -41.6,-98.55 -124.9,-98.55l-713.73 0c-61.17,0 -104.5,4.24 -129.98,12.73 -35.69,13.17 -59.48,38.65 -71.39,75.61l-68.8 212.44 1047.63 0 56.1 -169.52zm2589.8 941.87l-168.22 479.23 -1909.22 0 693.34 -2031.59 550.58 0 -532.74 1552.36 1366.26 0zm2131.02 0l-168.26 479.23 -1909.21 0 693.33 -2031.59 550.58 0 -532.74 1552.36 1366.3 0zm2487.86 -1147.08l-573.54 1626.31 -1710.4 0c-93.49,0 -163.15,-30.62 -209.03,-91.76 -37.39,-53.14 -56.06,-119.39 -56.06,-199.27 0,-54.81 8.49,-104.93 25.47,-150.81l219.21 -630.9c52.68,-153.36 160.6,-229.83 323.75,-229.83l1310.19 0 38.22 -118.53c5.11,-15.29 7.66,-29.32 7.66,-42.92 0,-59.05 -38.25,-88.34 -114.71,-88.34l-1399.44 0 168.26 -479.23 1723.14 0c180.14,0 270.2,90.06 270.2,270.2 0,47.57 -7.66,92.62 -22.92,135.08zm-838.67 802.97l-876.84 0c-79.89,0 -132.57,36.09 -158.04,108.74l-33.14 87.95c-6.8,22.52 -10.22,42.89 -10.22,62.03 0,56.93 28.89,85.39 86.68,85.39l871.78 0 119.78 -344.11zm3255.15 -772.38l-481.79 1368.85c-52.68,151.23 -148.68,226.87 -288.01,226.87l-1876.11 0 718.84 -2031.59 1603.32 0c103.67,0 188.23,24.21 253.65,72.65 65.42,48.43 98.13,117.66 98.13,207.73 0,47.57 -9.36,99.42 -28.03,155.49zm-606.69 145.3c1.73,-6.8 2.56,-13.6 2.56,-20.41 0,-54.37 -43.33,-81.53 -130.01,-81.53l-805.49 0 -379.81 1073.13 800.42 0c112.13,0 181.83,-37.38 208.99,-112.16l15.3 -43.32c8.49,-22.1 104.53,-293.99 288.04,-815.71zm2984.94 -175.89l-573.54 1626.31 -1710.4 0c-93.45,0 -163.15,-30.62 -209.03,-91.76 -37.39,-53.14 -56.06,-119.39 -56.06,-199.27 0,-54.81 8.49,-104.93 25.47,-150.81l219.22 -630.9c52.68,-153.36 160.59,-229.83 323.74,-229.83l1310.2 0 38.25 -118.53c5.07,-15.29 7.62,-29.32 7.62,-42.92 0,-59.05 -38.21,-88.34 -114.71,-88.34l-1399.4 0 168.22 -479.23 1723.15 0c180.13,0 270.2,90.06 270.2,270.2 0,47.57 -7.63,92.62 -22.93,135.08zm-838.63 802.97l-876.88 0c-79.88,0 -132.56,36.09 -158.04,108.74l-33.14 87.95c-6.8,22.52 -10.18,42.89 -10.18,62.03 0,56.93 28.89,85.39 86.65,85.39l871.77 0 119.82 -344.11z"/>
   <path class="fil1" d="M10497.58 18873.21c0,168.62 -91.51,297.8 -274.45,387.5 -139.9,68.12 -304.92,102.23 -495.1,102.23 -222.45,0 -374.87,-32.31 -457.45,-96.9 -64.52,-50.2 -96.84,-127.35 -96.84,-231.41 0,-75.31 15.22,-130.04 45.74,-164.12 30.48,-34.04 69.09,-51.1 115.69,-51.1 28.71,-3.6 66.39,8.96 113.02,37.68 125.58,78.91 208.09,121.05 247.53,126.44 39.47,5.36 75.39,8.06 107.66,8.06 39.44,0 71.75,-8.96 96.87,-26.88 25.08,-17.99 37.68,-48.43 37.68,-91.5 0,-21.52 -100.43,-93.31 -301.37,-215.26 -200.89,-121.98 -301.39,-256.52 -301.39,-403.62 0,-186.54 100.5,-331.84 301.39,-435.87 172.18,-89.71 371.28,-134.51 597.33,-134.51 157.86,0 274.48,37.64 349.8,112.95 64.59,64.59 96.83,152.5 96.83,263.73 0,71.71 -21.52,147.1 -64.56,226.01 -53.79,96.83 -123.78,145.3 -209.89,145.3 -86.07,0 -141.7,-21.52 -166.82,-64.59 -17.92,-28.71 -14.32,-61.89 10.8,-99.53 25.11,-37.67 53.79,-78.08 86.11,-121.08 0,-32.32 -11.7,-56.53 -35.02,-72.65 -23.28,-16.16 -54.69,-24.26 -94.17,-24.26 -111.22,0 -192.83,11.7 -244.83,34.98 -52.03,23.32 -83.41,79.85 -94.2,169.52 0,32.31 104.96,117.52 314.82,255.62 209.89,138.14 314.82,259.23 314.82,363.26zm2028.82 317.52c-93.3,0 -193.73,-9 -301.4,-26.92 -107.62,-17.96 -191.93,-35.88 -252.93,-53.79 -64.55,50.19 -114.75,86.1 -150.66,107.62 -89.67,50.2 -220.61,75.32 -392.83,75.32 -64.59,0 -129.18,-11.63 -193.74,-34.94 -64.59,-23.36 -130.9,-56.57 -199.09,-99.61 -82.51,247.57 -139.94,500.5 -172.22,758.79 -43.04,315.72 -75.31,521.97 -96.83,618.88 -21.56,96.83 -75.39,177.54 -161.5,242.13 -86.1,64.59 -154.22,96.9 -204.49,96.9 -53.76,0 -93.27,-31.41 -118.35,-94.2 -25.12,-62.79 -37.71,-121.05 -37.71,-174.84 0,-150.7 50.23,-378.51 150.7,-683.47 10.76,-28.72 107.63,-296.01 290.57,-801.86 111.22,-301.33 170.41,-500.46 177.61,-597.29 -64.59,-14.4 -114.82,-30.52 -150.7,-48.47 -53.79,-28.72 -80.71,-59.16 -80.71,-91.51 0,-10.72 9,-28.64 26.92,-53.76 129.18,-147.1 235,-263.72 317.51,-349.83 154.23,-165.02 249.33,-247.53 285.21,-247.53 32.31,0 55.59,14.36 69.95,43.04 10.76,43.07 19.76,77.18 26.88,102.23 68.19,-89.64 138.18,-179.35 209.89,-269.05 107.63,-111.23 218.85,-166.82 333.68,-166.82 125.58,0 229.61,59.19 312.12,177.61 71.71,104.03 107.63,227.81 107.63,371.32 0,175.78 -10.8,311.18 -32.32,406.29 -21.52,95.06 -62.79,216.11 -123.74,363.21 60.95,14.4 109.42,23.32 145.26,26.92 129.18,21.52 231.41,32.31 306.8,32.31 71.71,0 107.59,46.6 107.59,139.91 0,53.79 -19.76,105.82 -59.2,156.02 -39.47,50.27 -86.1,75.39 -139.9,75.39zm-667.28 -1108.58c0,-35.92 -13.49,-67.26 -40.37,-94.17 -26.92,-26.95 -58.33,-40.38 -94.21,-40.38 -57.35,0 -100.43,41.28 -129.14,123.79 -25.12,100.43 -43.07,168.62 -53.8,204.46 61,14.39 104.03,28.71 129.15,43.07 64.59,35.91 107.59,93.3 129.14,172.21 10.76,-53.79 23.32,-122.88 37.68,-207.19 14.36,-84.31 21.55,-151.6 21.55,-201.79zm-247.6 726.47c-21.52,-32.24 -43.04,-64.56 -64.56,-96.83 -43.03,-57.43 -75.34,-86.11 -96.86,-86.11 -82.51,0 -123.75,34.07 -123.75,102.23 0,28.71 15.22,54.69 45.74,78.01 30.47,23.35 67.28,35.01 110.32,35.01 39.47,3.56 82.51,-7.16 129.11,-32.31zm3067.45 -371.28c0,71.71 -39.44,126.45 -118.42,164.12 -78.91,37.64 -170.35,56.49 -274.38,56.49 -64.59,0 -127.38,-9.86 -188.41,-29.57 -60.99,-19.72 -118.38,-51.14 -172.18,-94.21 -150.66,200.93 -299.56,400.03 -446.66,597.36 -182.94,175.78 -360.55,263.69 -532.77,263.69 -100.43,0 -197.3,-37.67 -290.6,-112.99 -107.63,-89.7 -161.43,-199.13 -161.43,-328.31 0,-261.85 150.7,-525.58 452.03,-791.03 258.32,-226.01 457.46,-339.03 597.36,-339.03 211.66,0 356.96,43.03 435.87,129.14 57.39,60.99 86.11,154.23 86.11,279.81 35.87,28.71 81.61,52.03 137.2,69.95 55.63,17.96 103.2,26.95 142.64,26.95 32.28,0 80.71,-5.4 145.3,-16.15 64.59,-10.8 105.83,-16.2 123.79,-16.2 43.03,0 64.55,46.67 64.55,139.98zm-1124.74 107.63c0,-93.31 -17.92,-145.34 -53.79,-156.1 -71.75,-17.92 -173.12,40.37 -304.06,174.92 -130.91,134.5 -196.4,230.51 -196.4,287.9 0,28.71 8.06,58.29 24.22,88.81 16.15,30.47 38.57,45.73 67.25,45.73 96.9,0 198.23,-54.73 304.06,-164.16 105.83,-109.38 158.72,-201.79 158.72,-277.1zm2636.95 -656.56c0,114.79 -27.85,197.3 -83.41,247.53 -55.67,50.27 -137.28,75.35 -244.91,75.35 -57.39,0 -105.82,-19.75 -145.3,-59.19 -39.43,-39.48 -95.03,-59.2 -166.82,-59.2 -89.7,0 -177.54,39.44 -263.65,118.39 -60.99,53.83 -122.02,129.15 -183.01,226.05 -32.28,53.79 -58.29,114.75 -78.01,182.94 -19.72,68.19 -29.58,157.82 -29.58,269.05l0 139.97c0,82.51 -33.21,150.63 -99.6,204.46 -66.36,53.8 -146.17,80.71 -239.44,80.71 -96.9,0 -155.16,-17.02 -174.91,-51.13 -19.72,-34.08 -29.62,-86.94 -29.62,-158.72 0,-35.88 22.42,-127.38 67.29,-274.45 44.84,-147.1 67.29,-240.4 67.29,-279.84 0,-114.79 -7.2,-209.89 -21.55,-285.21 -32.24,-168.62 -48.44,-274.44 -48.44,-317.52 0,-50.23 33.22,-96.83 99.61,-139.9 66.31,-43.04 124.64,-64.59 174.84,-64.59 60.99,0 121.08,27.78 180.31,83.41 59.2,55.59 88.77,119.28 88.77,191.07 46.64,-100.5 137.24,-184.81 271.79,-252.93 134.5,-68.19 260.99,-102.26 379.34,-102.26 122.02,0 232.31,18.85 331.01,56.49 98.63,37.68 148,94.17 148,169.52zm1469.1 -32.31c-254.73,46.67 -590.17,96.9 -1006.32,150.7 -93.3,197.33 -157.82,355.15 -193.73,473.58 -71.72,229.61 -107.63,462.82 -107.63,699.55 0,86.11 -15.26,139.94 -45.7,161.5 -30.51,21.51 -97.8,32.24 -201.83,32.24 -129.18,0 -193.77,-84.31 -193.77,-252.93 0,-96.83 -1.8,-280.71 -5.33,-551.59 -3.6,-270.89 -5.39,-472.65 -5.39,-605.43 0,-50.19 8.92,-94.13 26.91,-131.8 17.92,-37.71 43.07,-61.93 75.31,-72.65 57.4,-21.52 130.08,-41.28 217.99,-59.2 87.84,-17.92 153.33,-30.51 196.36,-37.67 172.22,-444.87 326.52,-800.02 462.82,-1065.55 244.01,-469.94 453.87,-715.71 629.64,-737.26 114.83,-17.92 172.22,23.31 172.22,123.78 0,132.74 -170.42,480.78 -511.25,1044.03 -118.39,193.73 -236.77,387.43 -355.2,581.17 129.19,0 285.25,-1.8 468.22,-5.4 182.94,-3.53 373.08,-8.92 570.41,-16.12 82.51,0 123.79,34.11 123.79,102.23 0,35.91 -22.42,68.19 -67.29,96.9 -44.84,28.68 -128.25,52 -250.23,69.92z"/>
   <path class="fil0" d="M680.55 17817.59l0 49.66 -87.11 0c-92.34,0 -147.21,11.3 -185.5,66.14 -35.73,51.38 -40.95,116.77 -40.95,181.21 0,62.69 4.32,130.62 34.87,181.14 36.56,59.2 95.79,72.33 170.67,72.33l108.02 0 0 59.19 114.93 0 0 -59.19 108.06 0c74.88,0 134.11,-13.13 170.71,-72.33 30.44,-50.52 34.83,-118.45 34.83,-181.14 0,-64.44 -5.22,-129.83 -40.98,-181.21 -38.25,-54.84 -93.17,-66.14 -186.36,-66.14l-86.26 0 0 -49.66 -114.93 0zm0 459.01l-51.42 0c-45.26,0 -106.22,-1.76 -130.62,-56.64 -5.22,-12.2 -13.06,-37.46 -13.06,-105.36 0,-67.93 9.57,-93.23 15.65,-105.39 22.67,-44.44 70.6,-50.52 111.52,-50.52l67.93 0 0 317.91zm114.93 0l0 -317.91 67.94 0c43.58,0 88.02,6.08 110.65,50.52 11.34,21.77 16.55,51.38 16.55,105.39 0,60.96 -5.21,87.95 -13.09,105.36 -24.37,54.88 -85.32,56.64 -130.66,56.64l-51.39 0zm677.97 150.66l0 -609.67 -114.93 0 0 609.67 114.93 0zm558.72 0l0 -518.27 238.57 0 0 -91.4 -591.36 0 0 91.4 237.78 0 0 518.27 115.01 0zm991.41 -609.67l-114.89 0 0 249.98 -317.09 0 0 -249.98 -114.93 0 0 609.67 114.93 0 0 -268.22 317.09 0 0 268.22 114.89 0 0 -609.67zm755.51 609.67l0 -91.43 -325.72 0c-18.28,0 -32.24,-0.9 -39.22,-7.84 -5.15,-4.36 -8.67,-13.93 -8.67,-23.54l0 -142.85 361.45 0 0 -91.44 -361.45 0 0 -122.77c0,-8.75 0,-20.94 9.57,-29.65 8.74,-7.81 20.87,-8.75 31.34,-8.75l329.25 0 0 -91.4 -391.11 0c-23.46,0 -53.11,1.73 -73.11,23.5 -13.14,14.83 -20.91,39.19 -20.91,63.59l0 432.01c0,23.46 1.76,51.39 22.63,71.39 20.05,19.18 43.54,19.18 69.7,19.18l396.25 0zm736.33 0l0 -91.43 -206.4 0c-72.29,0 -128.06,-10.44 -159.4,-58.37 -12.2,-19.17 -28.72,-56.63 -28.72,-148.07 0,-90.57 15.65,-136.74 33.93,-163.76 34.84,-52.25 92.3,-56.64 160.27,-56.64l190.75 0 0 -91.4 -244.76 0c-43.57,0 -138.43,5.22 -199.45,76.61 -51.35,60.13 -59.23,149.84 -59.23,236.92 0,67.07 4.39,160.27 61.85,224.72 56.64,63.62 135.91,71.42 194.21,71.42l256.95 0zm263.91 -189.88l310.93 0 0 -89.71 -310.93 0 0 89.71zm1227.22 189.88l0 -91.43 -83.63 0 0 -518.24 -114.97 0 0 518.24 -273.47 0c-8.71,0 -26.09,0 -33.97,-9.64 -7.84,-8.71 -5.25,-26.96 -5.25,-38.29l0 -470.31 -114.97 0 0 520.83c0,22.67 2.63,51.38 26.12,71.39 20.91,17.45 46.17,17.45 71.39,17.45l528.75 0zm694.44 0l0 -91.43 -325.65 0c-18.35,0 -32.28,-0.9 -39.22,-7.84 -5.18,-4.36 -8.71,-13.93 -8.71,-23.54l0 -142.85 361.46 0 0 -91.44 -361.46 0 0 -122.77c0,-8.75 0,-20.94 9.57,-29.65 8.71,-7.81 20.87,-8.75 31.38,-8.75l329.21 0 0 -91.4 -391.07 0c-23.53,0 -53.11,1.73 -73.15,23.5 -13.06,14.83 -20.91,39.19 -20.91,63.59l0 432.01c0,23.46 1.73,51.39 22.67,71.39 20.01,19.18 43.51,19.18 69.67,19.18l396.21 0zm787.75 -609.67l-115 0 0 249.98 -316.98 0 0 -249.98 -115 0 0 609.67 115 0 0 -268.22 316.98 0 0 268.22 115 0 0 -609.67zm558.65 609.67l0 -518.27 238.64 0 0 -91.4 -591.39 0 0 91.4 237.82 0 0 518.27 114.93 0zm559.54 0l0 -216.01 285.67 0c35.74,0 70.53,-11.29 93.2,-29.61 47.9,-39.19 53.11,-117.56 53.11,-167.22 0,-51.38 -4.35,-120.22 -46.16,-160.23 -37.46,-36.6 -88.85,-36.6 -121.09,-36.6l-289.99 0c-20.91,0 -48.79,3.5 -68.8,23.5 -20.94,20.91 -20.94,45.34 -20.94,67.9l0 518.27 115 0zm0 -307.44l0 -174.2c0,-10.47 0,-20.94 7.81,-28.75 8.71,-8.7 19.14,-7.88 27.02,-7.88l185.5 0c19.18,0 51.38,0.94 71.43,20.95 19.14,20.04 21.77,56.63 21.77,83.59 0,23.49 -1.73,62.75 -20.05,83.62 -20.04,22.67 -49.62,22.67 -74.88,22.67l-218.6 0z"/>
   <path class="fil2" d="M12451.49 2728.91c935.62,-118.72 1335.33,594.4 1102.92,1470.44 -248.31,936.01 -999.35,1883.48 -1594,2576.32 -401.93,468.17 -1653.44,1673.67 -2184.51,1981.07 216.27,-250.97 485.76,-460.73 711.9,-703.65 425.77,-457.47 420.64,-269.44 411.7,-1038.55 141.53,-124.3 365.3,-194.54 542.23,-298.41 1380.3,-810.33 1010.16,-1826.61 1452.03,-2904.94 168.82,-412 -1.78,-380.7 -442.27,-1082.28zm-4814.73 5753.8c-0.93,189.61 107.47,483.68 124.31,730.36 18.01,263.9 14.56,541.29 -25.67,796.75 -66.25,420.59 -187.99,960.15 -374.69,1261.92 400.36,302.12 421.29,519.97 1220.26,-38.21 513.5,-358.73 869.62,-57.7 1169.56,-710.31 471.44,-1025.86 771.63,-1418.46 1662.27,-2095.35l1268.98 -1251.21c622.59,-582.16 1697.13,-2170.93 1967.7,-3029.19 260.2,-825.29 197.06,-1465.26 -395.37,-1845.08 -608.67,-390.18 -1491.76,-92.26 -2156.07,-5.62l-1189.7 -1325.26c-219.23,-208.42 -422.32,-359.62 -793.3,-490.05 -260.89,-91.77 -749.46,-224.95 -1032.67,-265.04 -176.82,165.77 -663.32,711.7 -591.69,1114.32 197.22,171.54 569.38,313.02 866.31,338 405.54,34.07 571.01,-208.32 868.23,-342.34 100.22,1249.63 -162.51,2230.81 884.58,2658.36l-314.75 113.34c-1003.55,258.33 -1074.93,798.83 -1277.38,1655.81 -2918.27,110.08 -1805.18,2246.26 -1880.91,2728.8z"/>
   <path class="fil3" d="M4909.83 7971.19c186.7,18.66 373.45,37.37 560.2,56.03 119.76,468.67 369.15,920.61 634.44,1231.46 402.33,471.44 479.24,510.34 588.78,1338.19 -559.95,179.35 -1190.54,442.81 -1875.98,377.3 -583.64,-55.78 -913.45,-348.02 -954.96,-867.94 -2.52,-516.8 202.1,-1140.48 659.76,-1875.53 302.81,-457.61 656.66,-883.83 942.73,-1256.09 122.47,-159.3 30.5,-87.63 200.42,-164.59 -120.65,262.08 -622.25,832.35 -755.39,1161.17zm9875.89 1882.93c-3422.78,1815.11 -7140.07,2532.44 -9235.72,1997.96 682.03,-177.52 1354.48,-450.11 1810.71,-580.34 186.7,-301.77 308.44,-841.33 374.69,-1261.92 40.23,-255.46 43.68,-532.85 25.67,-796.75 -16.84,-246.68 -125.24,-540.75 -124.31,-730.36 -132.2,-755.58 -489.65,-1561.17 54.26,-2172.46 234.53,-263.61 416.64,-412.1 789,-585.91 361.85,-168.93 166.75,-177.52 320.97,-366.44 65.26,-79.97 352.37,-170.71 466.85,-222.93 -13.43,-427.95 -220.27,-736.53 -270.03,-1099.81 333.56,-250.63 1052.61,-533.88 1280.53,-736.28 -21.62,-70.54 -43.19,-141.09 -64.81,-211.58 -460.38,193.26 -902.94,564.54 -1323.43,730.41 -84.27,-437.43 -225.36,-710.12 -692.01,-769.8 -406.62,-52.03 -893.11,66.69 -1196.9,234.97 -1029.31,570.17 -150.42,1535.06 -13.08,1944 -45.47,53.37 -343.63,332.97 -415.41,382.14 -201.51,138.17 -253.39,9.97 -513.4,-63.88 -534.62,-151.95 -865.02,-16.04 -1352.26,49.81 1111.9,-1532.98 -148,-1581.61 -66.05,-2945.67 922.98,-11.1 846.12,595.35 1589.21,-459.93 227.77,-323.44 -64.17,-557.83 -374.33,-795.52 -261.1,-200.13 -373.65,-200.28 -695.01,-41.81 -968.05,477.26 -926.93,558.56 -1414.12,1381.28 -539.9,911.78 -874.75,1649.69 -838.17,2908.5 11.5,395.12 152.88,362.39 382.73,562.81 183.69,160.19 216.71,345.65 336.52,579.89 402.77,787.28 636.96,804.75 805.05,1055.08 -110.04,187 -220.37,342.25 -333.27,499.97l-0.05 0 -0.34 0.5c-210.69,294.16 -430.22,597.02 -673.74,1130.56 -201.55,441.57 -422.12,1098.32 -320.13,1631.27 288.44,2922.61 6445.8,2851.48 10979.25,951.56 77.85,-159.35 623.29,-2039.96 701.13,-2199.32z"/>
  </g>
 </g>
</svg>
